<?xml version="1.0" encoding="UTF-8"?>
<!DOCTYPE svg PUBLIC "-//W3C//DTD SVG 1.1//EN" "http://www.w3.org/Graphics/SVG/1.1/DTD/svg11.dtd">
<svg xmlns="http://www.w3.org/2000/svg" version="1.1" width="468px" height="544px" style="shape-rendering:geometricPrecision; text-rendering:geometricPrecision; image-rendering:optimizeQuality; fill-rule:evenodd; clip-rule:evenodd" xmlns:xlink="http://www.w3.org/1999/xlink">
<g><path style="opacity:0.857" fill="#cfd0d2" d="M 249.5,-0.5 C 268.5,-0.5 287.5,-0.5 306.5,-0.5C 349.694,4.43401 389.361,18.934 425.5,43C 441.735,55.068 455.735,69.2346 467.5,85.5C 467.5,86.5 467.5,87.5 467.5,88.5C 449.118,94.0619 433.118,103.562 419.5,117C 394.767,143.057 373.1,171.39 354.5,202C 356.875,204.176 359.208,206.343 361.5,208.5C 357.97,217.088 354.637,225.755 351.5,234.5C 347.861,235.46 344.195,235.46 340.5,234.5C 340.5,242.5 340.5,250.5 340.5,258.5C 331.841,259.037 323.174,259.537 314.5,260C 318.448,266.284 320.948,273.118 322,280.5C 332.686,294.707 339.186,310.707 341.5,328.5C 346.067,329.022 350.4,330.355 354.5,332.5C 355.666,342.483 355.832,352.483 355,362.5C 352.333,364.5 349.667,366.5 347,368.5C 346.118,390.576 341.785,411.909 334,432.5C 331.743,457.556 329.076,482.556 326,507.5C 321.898,515.262 317.398,522.762 312.5,530C 302.456,530.912 292.456,532.079 282.5,533.5C 284.782,510.969 281.615,489.303 273,468.5C 275.721,493.505 278.888,518.505 282.5,543.5C 280.833,543.5 279.167,543.5 277.5,543.5C 256.01,537.092 235.677,527.925 216.5,516C 185.805,496.643 156.805,474.977 129.5,451C 124.955,446.072 122.455,440.239 122,433.5C 120.349,420.487 120.183,407.487 121.5,394.5C 109.521,393.904 97.8541,391.737 86.5,388C 82.8168,386.159 79.4835,383.826 76.5,381C 74.1537,392.159 77.1537,402.659 85.5,412.5C 75.8964,424.94 65.7297,436.94 55,448.5C 53.3398,437.225 52.3398,425.892 52,414.5C 51.7784,426.173 51.7784,437.84 52,449.5C 36.6371,453.039 21.3038,456.706 6,460.5C 3.16703,440.11 1.00036,419.776 -0.5,399.5C -0.5,399.167 -0.5,398.833 -0.5,398.5C 0.833333,398.167 0.833333,397.833 -0.5,397.5C -0.5,363.5 -0.5,329.5 -0.5,295.5C 0.833333,295.167 0.833333,294.833 -0.5,294.5C -0.5,294.167 -0.5,293.833 -0.5,293.5C 2.21006,244.981 12.3767,197.981 30,152.5C 33.3333,145.833 36.6667,139.167 40,132.5C 48.7231,120.776 57.0565,108.776 65,96.5C 77.4207,82.7439 91.0874,70.4106 106,59.5C 105.782,57.4132 105.949,55.4132 106.5,53.5C 149.945,24.4608 197.612,6.46082 249.5,-0.5 Z"/></g>
<g><path style="opacity:1" fill="#59595b" d="M 257.5,5.5 C 309.866,2.75961 359.199,13.5929 405.5,38C 426.141,49.8078 443.474,65.3078 457.5,84.5C 436.27,93.5443 418.103,106.878 403,124.5C 382.399,148.766 363.733,174.433 347,201.5C 346.251,202.635 346.417,203.635 347.5,204.5C 349.833,206.167 351.833,208.167 353.5,210.5C 350.7,215.9 348.7,221.566 347.5,227.5C 343.774,227.177 340.107,227.511 336.5,228.5C 335.208,230.667 334.375,233 334,235.5C 333.501,241.157 333.334,246.824 333.5,252.5C 324.5,252.5 315.5,252.5 306.5,252.5C 306.335,255.518 306.502,258.518 307,261.5C 312.271,268.226 315.271,275.893 316,284.5C 324.84,294.18 330.507,305.513 333,318.5C 333.503,323.19 334.17,327.857 335,332.5C 339.333,334.167 343.667,335.833 348,337.5C 348.667,344.833 348.667,352.167 348,359.5C 345.333,361.5 342.667,363.5 340,365.5C 339.928,382.486 337.594,399.152 333,415.5C 331.333,418.833 329.667,422.167 328,425.5C 324.908,451.787 322.241,478.121 320,504.5C 316.545,511.247 312.711,517.747 308.5,524C 302.151,524.406 295.817,524.906 289.5,525.5C 291.037,503.763 287.204,483.096 278,463.5C 275.814,459.802 273.147,456.468 270,453.5C 269.08,450.899 268.413,448.232 268,445.5C 266.559,444.74 265.059,444.074 263.5,443.5C 263.167,444.167 262.833,444.833 262.5,445.5C 266.646,475.149 270.646,504.816 274.5,534.5C 253.229,528.369 233.229,519.202 214.5,507C 185.467,487.891 157.967,466.725 132,443.5C 129.708,438.093 128.374,432.426 128,426.5C 127.5,413.171 127.333,399.837 127.5,386.5C 117.776,386.859 108.109,386.359 98.5,385C 85.672,383.022 77.5054,375.855 74,363.5C 71.2524,355.019 70.2524,346.353 71,337.5C 72.2426,334.117 73.2426,330.784 74,327.5C 60.5852,342.667 52.2518,360.334 49,380.5C 45.9026,401.712 44.7359,423.045 45.5,444.5C 33.7836,446.68 22.1169,449.013 10.5,451.5C 5.90463,400.271 4.40463,348.938 6,297.5C 8.39173,251.876 17.0584,207.543 32,164.5C 37.0109,151.478 43.3443,139.145 51,127.5C 66.6988,102.133 86.8654,80.9665 111.5,64C 112.971,61.7572 113.971,59.2572 114.5,56.5C 158.011,27.7747 205.678,10.7747 257.5,5.5 Z"/></g>
<g><path style="opacity:1" fill="#414042" d="M 291.5,438.5 C 294.833,436.5 298.167,434.5 301.5,432.5C 302.166,436.319 302.499,440.319 302.5,444.5C 301.2,468.824 300.2,493.157 299.5,517.5C 298.504,517.586 297.671,517.252 297,516.5C 296.145,491.853 289.145,469.186 276,448.5C 272.352,443.685 268.185,439.352 263.5,435.5C 262.548,433.955 262.215,432.288 262.5,430.5C 272.123,433.15 281.79,435.816 291.5,438.5 Z"/></g>
<g><path style="opacity:1" fill="#6c6e70" d="M 312.5,394.5 C 309.963,434.003 307.296,473.503 304.5,513C 304.514,514.385 304.848,515.551 305.5,516.5C 304.866,517.947 303.699,518.613 302,518.5C 300.93,518.472 300.097,518.139 299.5,517.5C 300.2,493.157 301.2,468.824 302.5,444.5C 302.499,440.319 302.166,436.319 301.5,432.5C 303,430.821 304.833,429.488 307,428.5C 307.719,418.441 307.219,408.441 305.5,398.5C 305.833,396.5 306.167,394.5 306.5,392.5C 308.323,393.747 310.323,394.414 312.5,394.5 Z"/></g>
<g><path style="opacity:1" fill="#706f70" d="M 64.5,345.5 C 65.5321,353.464 67.5321,361.297 70.5,369C 67.6117,384.76 70.2784,399.427 78.5,413C 72.6965,420.758 66.5299,428.258 60,435.5C 55.735,411.564 55.4017,387.564 59,363.5C 61.1286,357.58 62.9619,351.58 64.5,345.5 Z"/></g>
<g><path style="opacity:1" fill="#d3d4d6" d="M 329.5,363.5 C 329.095,374.559 325.095,384.059 317.5,392C 315.922,393.094 314.255,393.928 312.5,394.5C 310.323,394.414 308.323,393.747 306.5,392.5C 306.167,394.5 305.833,396.5 305.5,398.5C 307.219,408.441 307.719,418.441 307,428.5C 304.833,429.488 303,430.821 301.5,432.5C 298.167,434.5 294.833,436.5 291.5,438.5C 291.798,426.165 292.132,413.832 292.5,401.5C 292.5,399.5 292.5,397.5 292.5,395.5C 293.483,391.702 293.817,387.702 293.5,383.5C 296.807,384.051 300.14,384.384 303.5,384.5C 303.232,386.099 303.566,387.432 304.5,388.5C 304.5,389.5 304.5,390.5 304.5,391.5C 314.04,388.825 319.706,382.492 321.5,372.5C 321.457,371.584 321.124,370.917 320.5,370.5C 320.783,369.711 321.283,369.044 322,368.5C 322.869,373.508 323.536,373.175 324,367.5C 325.432,365.561 327.265,364.228 329.5,363.5 Z"/></g>
<g><path style="opacity:1" fill="#5a5b5d" d="M 250.5,396.5 C 240.553,398.572 230.887,397.738 221.5,394C 219.253,392.723 217.253,391.223 215.5,389.5C 225.582,391.088 235.582,390.754 245.5,388.5C 247.897,390.662 249.564,393.329 250.5,396.5 Z"/></g>
<g><path style="opacity:1" fill="#fbfbfb" d="M 295.5,386.5 C 296.5,386.5 297.5,386.5 298.5,386.5C 300.196,400.812 300.53,415.146 299.5,429.5C 298.167,430.5 296.833,431.5 295.5,432.5C 295.397,417.236 295.397,401.903 295.5,386.5 Z"/></g>
<g><path style="opacity:1" fill="#c21c1d" d="M 63.5,368.5 C 64.5159,383.407 67.8493,397.907 73.5,412C 70.3634,416.138 66.8634,419.971 63,423.5C 58.1917,405.112 58.3583,386.778 63.5,368.5 Z"/></g>
<g><path style="opacity:1" fill="#414042" d="M 320.5,370.5 C 321.124,370.917 321.457,371.584 321.5,372.5C 319.706,382.492 314.04,388.825 304.5,391.5C 304.5,390.5 304.5,389.5 304.5,388.5C 304.741,386.114 304.075,384.114 302.5,382.5C 308.246,378.082 314.246,374.082 320.5,370.5 Z"/></g>
<g><path style="opacity:1" fill="#414042" d="M 292.5,395.5 C 292.5,397.5 292.5,399.5 292.5,401.5C 290.24,396.527 289.24,391.194 289.5,385.5C 281.5,384.833 273.5,384.167 265.5,383.5C 268.356,393.962 269.189,404.629 268,415.5C 267.025,418.76 265.858,421.927 264.5,425C 261.146,425.455 257.813,425.955 254.5,426.5C 252.907,416.673 251.574,406.673 250.5,396.5C 249.564,393.329 247.897,390.662 245.5,388.5C 235.582,390.754 225.582,391.088 215.5,389.5C 207.348,383.534 201.348,375.868 197.5,366.5C 198.167,366.167 198.833,365.833 199.5,365.5C 230.501,371.336 261.501,377.002 292.5,382.5C 292.5,386.833 292.5,391.167 292.5,395.5 Z"/></g>
<g><path style="opacity:1" fill="#bbbdbf" d="M 333.5,360.5 C 333.666,368.174 333.5,375.841 333,383.5C 331.662,396.902 327.995,409.569 322,421.5C 318.835,448.817 315.835,476.15 313,503.5C 309.983,507.534 307.483,511.867 305.5,516.5C 304.848,515.551 304.514,514.385 304.5,513C 307.296,473.503 309.963,434.003 312.5,394.5C 314.255,393.928 315.922,393.094 317.5,392C 325.095,384.059 329.095,374.559 329.5,363.5C 330.833,362.5 332.167,361.5 333.5,360.5 Z"/></g>
<g><path style="opacity:1" fill="#f7f7f7" d="M 319.5,393.5 C 320.158,394.793 320.492,396.293 320.5,398C 316.666,431.168 312.833,464.335 309,497.5C 310.056,469.817 311.723,442.151 314,414.5C 314.505,408.45 315.339,402.45 316.5,396.5C 317.855,395.812 318.855,394.812 319.5,393.5 Z"/></g>
<g><path style="opacity:1" fill="#fafbfb" d="M 341.5,342.5 C 341.666,346.846 341.499,351.179 341,355.5C 338.557,357.301 336.057,358.968 333.5,360.5C 332.167,361.5 330.833,362.5 329.5,363.5C 327.265,364.228 325.432,365.561 324,367.5C 323.536,373.175 322.869,373.508 322,368.5C 321.283,369.044 320.783,369.711 320.5,370.5C 314.246,374.082 308.246,378.082 302.5,382.5C 301.883,382.611 301.383,382.944 301,383.5C 300.501,379.514 300.334,375.514 300.5,371.5C 314.02,361.578 327.687,351.911 341.5,342.5 Z"/></g>
<g><path style="opacity:1" fill="#b9bbbd" d="M 196.5,334.5 C 198.607,335.468 200.941,335.802 203.5,335.5C 204.092,338.127 204.425,340.794 204.5,343.5C 202.106,342.985 199.772,342.319 197.5,341.5C 193.679,340.088 190.013,338.422 186.5,336.5C 185.909,335.849 185.243,335.182 184.5,334.5C 185.167,334.167 185.833,333.833 186.5,333.5C 189.783,334.327 193.116,334.66 196.5,334.5 Z"/></g>
<g><path style="opacity:1" fill="#414143" d="M 118.5,323.5 C 132.719,333.943 148.385,341.776 165.5,347C 173.042,349.035 180.709,350.202 188.5,350.5C 188.232,352.099 188.566,353.432 189.5,354.5C 189.5,356.833 189.5,359.167 189.5,361.5C 161.943,355.891 138.276,343.225 118.5,323.5 Z"/></g>
<g><path style="opacity:1" fill="#d0d2d4" d="M 300.5,362.5 C 300.167,362.5 299.833,362.5 299.5,362.5C 295.417,345.087 293.751,327.42 294.5,309.5C 295.309,307.708 295.809,305.708 296,303.5C 298.803,311.11 302.636,318.11 307.5,324.5C 308.333,324.833 309.167,325.167 310,325.5C 313.345,323.859 316.845,323.359 320.5,324C 327.336,330.237 329.336,337.571 326.5,346C 317.682,351.329 309.015,356.829 300.5,362.5 Z"/></g>
<g><path style="opacity:1" fill="#fdfdfd" d="M 297.5,317.5 C 300.446,324.5 302.946,331.834 305,339.5C 311.558,338.48 317.392,340.647 322.5,346C 316.499,350.336 310.166,354.169 303.5,357.5C 302.914,357.291 302.414,356.957 302,356.5C 298.284,343.769 296.784,330.769 297.5,317.5 Z"/></g>
<g><path style="opacity:1" fill="#919396" d="M 294.5,309.5 C 293.751,327.42 295.417,345.087 299.5,362.5C 267.041,359.799 235.375,353.466 204.5,343.5C 204.425,340.794 204.092,338.127 203.5,335.5C 200.941,335.802 198.607,335.468 196.5,334.5C 198.857,334.663 201.19,334.497 203.5,334C 221.994,314.141 243.661,309.974 268.5,321.5C 269.386,320.675 269.719,319.675 269.5,318.5C 270.167,318.5 270.5,318.833 270.5,319.5C 270.64,321.124 269.973,322.29 268.5,323C 271.446,323.806 274.112,325.139 276.5,327C 280.776,329.468 284.609,328.968 288,325.5C 290.798,319.773 292.798,313.773 294,307.5C 294.464,308.094 294.631,308.761 294.5,309.5 Z"/></g>
<g><path style="opacity:1" fill="#6d6f71" d="M 288.5,331.5 C 290.344,339.859 292.011,348.526 293.5,357.5C 263.158,356.834 233.824,351.334 205.5,341C 221.225,342.564 236.892,344.898 252.5,348C 259.5,348.667 266.5,348.667 273.5,348C 274.766,347.691 275.933,347.191 277,346.5C 279.168,340.173 283.001,335.173 288.5,331.5 Z"/></g>
<g><path style="opacity:1" fill="#babcbf" d="M 232.5,320.5 C 239.881,320.314 247.214,320.814 254.5,322C 261.487,324.16 268.154,326.993 274.5,330.5C 264.221,332.013 254.221,330.847 244.5,327C 237.167,326.333 229.833,326.333 222.5,327C 221.5,327.5 220.5,328 219.5,328.5C 218.304,328.154 218.304,327.654 219.5,327C 223.657,324.255 227.99,322.088 232.5,320.5 Z"/></g>
<g><path style="opacity:1" fill="#808184" d="M 118.5,323.5 C 138.276,343.225 161.943,355.891 189.5,361.5C 189.5,359.167 189.5,356.833 189.5,354.5C 189.5,353.5 189.5,352.5 189.5,351.5C 226.523,358.178 263.523,364.845 300.5,371.5C 300.334,375.514 300.501,379.514 301,383.5C 301.383,382.944 301.883,382.611 302.5,382.5C 304.075,384.114 304.741,386.114 304.5,388.5C 303.566,387.432 303.232,386.099 303.5,384.5C 300.14,384.384 296.807,384.051 293.5,383.5C 293.817,387.702 293.483,391.702 292.5,395.5C 292.5,391.167 292.5,386.833 292.5,382.5C 261.501,377.002 230.501,371.336 199.5,365.5C 198.833,365.833 198.167,366.167 197.5,366.5C 201.348,375.868 207.348,383.534 215.5,389.5C 217.253,391.223 219.253,392.723 221.5,394C 230.887,397.738 240.553,398.572 250.5,396.5C 251.574,406.673 252.907,416.673 254.5,426.5C 257.923,453.466 261.423,480.466 265,507.5C 265.867,513.493 266.2,519.493 266,525.5C 225.472,507.835 188.305,485.001 154.5,457C 147.302,450.136 140.468,442.97 134,435.5C 133.785,416.478 133.618,397.478 133.5,378.5C 120.54,380.891 107.54,381.058 94.5,379C 82.6119,372.417 76.4452,362.251 76,348.5C 73.1246,330.561 80.6246,321.228 98.5,320.5C 99.7846,314.132 101.285,307.799 103,301.5C 106.056,310.379 111.223,317.712 118.5,323.5 Z"/></g>
<g><path style="opacity:1" fill="#9a9c9f" d="M 217.5,411.5 C 218.158,412.793 218.492,414.293 218.5,416C 216.414,437.536 214.081,459.036 211.5,480.5C 210.328,480.081 209.328,479.415 208.5,478.5C 211.744,456.216 214.744,433.883 217.5,411.5 Z"/></g>
<g><path style="opacity:1" fill="#58595c" d="M 239.5,418.5 C 238.71,417.391 238.21,416.058 238,414.5C 235.666,437.495 233.499,460.495 231.5,483.5C 234.5,483.5 237.5,483.5 240.5,483.5C 240.5,477.167 240.5,470.833 240.5,464.5C 241.491,470.979 241.824,477.646 241.5,484.5C 234.802,483.455 228.802,484.788 223.5,488.5C 227.778,460.59 232.945,432.59 239,404.5C 239.499,409.155 239.666,413.821 239.5,418.5 Z"/></g>
<g><path style="opacity:1" fill="#bbbdbf" d="M 159.5,437.5 C 162.833,437.5 166.167,437.5 169.5,437.5C 171.938,439.267 174.605,440.601 177.5,441.5C 176.532,445.432 174.532,448.766 171.5,451.5C 165.985,447.575 160.652,443.408 155.5,439C 157.058,438.79 158.391,438.29 159.5,437.5 Z"/></g>
<g><path style="opacity:1" fill="#414142" d="M 239.5,418.5 C 240.177,433.824 240.51,449.157 240.5,464.5C 240.5,470.833 240.5,477.167 240.5,483.5C 237.5,483.5 234.5,483.5 231.5,483.5C 233.499,460.495 235.666,437.495 238,414.5C 238.21,416.058 238.71,417.391 239.5,418.5 Z"/></g>
<g><path style="opacity:1" fill="#57585a" d="M 214.5,408.5 C 209.028,425.582 203.362,442.582 197.5,459.5C 197.942,460.739 198.609,461.739 199.5,462.5C 195.393,462.123 191.726,463.123 188.5,465.5C 187.957,465.44 187.624,465.107 187.5,464.5C 196.521,445.73 205.521,427.064 214.5,408.5 Z"/></g>
<g><path style="opacity:1" fill="#414142" d="M 205.5,463.5 C 203.5,463.167 201.5,462.833 199.5,462.5C 198.609,461.739 197.942,460.739 197.5,459.5C 203.362,442.582 209.028,425.582 214.5,408.5C 214.709,407.078 215.209,405.745 216,404.5C 216.167,405.5 216.333,406.5 216.5,407.5C 213.183,426.072 210.516,444.738 208.5,463.5C 207.5,463.5 206.5,463.5 205.5,463.5 Z"/></g>
<g><path style="opacity:1" fill="#424143" d="M 196.5,409.5 C 190.656,420.533 184.322,431.199 177.5,441.5C 174.605,440.601 171.938,439.267 169.5,437.5C 167.708,436.691 165.708,436.191 163.5,436C 165.833,435.667 168.167,435.333 170.5,435C 179.364,426.47 187.864,417.637 196,408.5C 196.399,408.728 196.565,409.062 196.5,409.5 Z"/></g>
<g><path style="opacity:1" fill="#58595b" d="M 196.5,409.5 C 196.565,409.062 196.399,408.728 196,408.5C 187.864,417.637 179.364,426.47 170.5,435C 168.167,435.333 165.833,435.667 163.5,436C 165.708,436.191 167.708,436.691 169.5,437.5C 166.167,437.5 162.833,437.5 159.5,437.5C 158.761,437.631 158.094,437.464 157.5,437C 171.047,425.785 184.88,414.952 199,404.5C 198.903,406.459 198.07,408.125 196.5,409.5 Z"/></g>
<g><path style="opacity:1" fill="#9da0a2" d="M 243.5,391.5 C 245.346,391.222 246.68,391.889 247.5,393.5C 240.885,395.885 234.219,396.051 227.5,394C 232.167,393.667 236.833,393.333 241.5,393C 242.416,392.722 243.082,392.222 243.5,391.5 Z"/></g>
<g><path style="opacity:1" fill="#6d6e71" d="M 139.5,378.5 C 152.387,387.048 164.721,396.381 176.5,406.5C 167.14,415.528 157.807,424.528 148.5,433.5C 152.666,443.841 159,452.675 167.5,460C 155.95,453.244 146.45,444.077 139,432.5C 138.833,414.502 139,396.502 139.5,378.5 Z"/></g>
<g><path style="opacity:1" fill="#b6b8ba" d="M 195.5,362.5 C 196.449,361.848 197.615,361.514 199,361.5C 231.717,367.314 264.55,372.314 297.5,376.5C 297.5,377.833 297.5,379.167 297.5,380.5C 263.594,374.193 229.594,368.193 195.5,362.5 Z"/></g>
<g><path style="opacity:1" fill="#babcbe" d="M 83.5,365.5 C 83.56,364.957 83.8933,364.624 84.5,364.5C 95.3401,373.842 107.34,375.842 120.5,370.5C 129.953,374.603 129.286,376.77 118.5,377C 108.734,378.475 99.4005,377.142 90.5,373C 87.9334,370.604 85.6,368.104 83.5,365.5 Z"/></g>
<g><path style="opacity:1" fill="#6d6f71" d="M 145.5,352.5 C 145.56,351.957 145.893,351.624 146.5,351.5C 160.274,359.036 174.94,363.869 190.5,366C 192.062,374.126 195.729,381.126 201.5,387C 200.833,387.667 200.167,387.667 199.5,387C 193.5,381 187.5,375 181.5,369C 168.079,366.454 156.079,360.954 145.5,352.5 Z"/></g>
<g><path style="opacity:1" fill="#49494b" d="M 104.5,341.5 C 112.697,351.355 121.03,361.188 129.5,371C 119.981,367.239 110.981,362.406 102.5,356.5C 105.587,351.885 106.254,346.885 104.5,341.5 Z"/></g>
<g><path style="opacity:1" fill="#babcbe" d="M 104.5,341.5 C 106.254,346.885 105.587,351.885 102.5,356.5C 99.4148,356.458 97.0814,355.125 95.5,352.5C 98.083,349.003 100.416,345.336 102.5,341.5C 103.257,340.227 103.923,340.227 104.5,341.5 Z"/></g>
<g><path style="opacity:1" fill="#58595b" d="M 93.5,326.5 C 95.604,326.201 97.604,326.534 99.5,327.5C 100.959,329.583 102.292,331.75 103.5,334C 99.2318,334.031 95.2318,335.031 91.5,337C 87.9636,340.201 84.7969,343.701 82,347.5C 81.1475,337.868 84.9808,330.868 93.5,326.5 Z"/></g>
<g><path style="opacity:1" fill="#e9e9ea" d="M 274.5,243.5 C 279.167,243.5 283.833,243.5 288.5,243.5C 288.833,243.5 289.167,243.5 289.5,243.5C 293.833,244.167 298.167,244.833 302.5,245.5C 299.745,251.525 298.912,257.859 300,264.5C 306.307,271.249 309.807,279.249 310.5,288.5C 312.741,294.991 315.574,301.324 319,307.5C 321.38,312.294 322.713,317.294 323,322.5C 318.134,319.861 313.301,319.861 308.5,322.5C 300.232,307.3 293.066,291.634 287,275.5C 286.333,273.5 286.333,271.5 287,269.5C 289.96,268.714 292.794,267.548 295.5,266C 288.754,265.795 282.087,265.295 275.5,264.5C 274.835,257.52 274.502,250.52 274.5,243.5 Z"/></g>
<g><path style="opacity:1" fill="#58585b" d="M 268.5,315.5 C 268.557,316.609 268.89,317.609 269.5,318.5C 269.719,319.675 269.386,320.675 268.5,321.5C 243.661,309.974 221.994,314.141 203.5,334C 201.19,334.497 198.857,334.663 196.5,334.5C 193.116,334.66 189.783,334.327 186.5,333.5C 185.833,333.833 185.167,334.167 184.5,334.5C 185.243,335.182 185.909,335.849 186.5,336.5C 185.5,336.5 184.5,336.5 183.5,336.5C 183.719,335.325 183.386,334.325 182.5,333.5C 159.816,326.082 140.316,313.748 124,296.5C 117.015,287.721 112.848,277.721 111.5,266.5C 111.855,265.478 112.522,264.811 113.5,264.5C 149.652,253.452 185.319,255.619 220.5,271C 223.833,273.333 227.167,275.667 230.5,278C 240.167,289 249.833,300 259.5,311C 262.286,313.06 265.286,314.56 268.5,315.5 Z"/></g>
<g><path style="opacity:1" fill="#7f8183" d="M 117.5,272.5 C 125.258,287.425 136.591,298.925 151.5,307C 167.226,316.134 183.893,323.134 201.5,328C 189.768,329.622 178.435,328.288 167.5,324C 143.468,313.804 126.802,296.637 117.5,272.5 Z"/></g>
<g><path style="opacity:1" fill="#7f8183" d="M 206.5,271.5 C 216.317,274.086 225.317,278.919 233.5,286C 239.028,292.227 244.194,298.727 249,305.5C 251.205,308.04 253.705,310.207 256.5,312C 246.526,311.502 236.526,311.502 226.5,312C 221.57,313.347 216.904,315.014 212.5,317C 220.657,312.181 226.657,305.514 230.5,297C 224.768,286.432 216.768,277.932 206.5,271.5 Z"/></g>
<g><path style="opacity:1" fill="#bbbdbf" d="M 270.5,319.5 C 270.5,318.833 270.167,318.5 269.5,318.5C 268.89,317.609 268.557,316.609 268.5,315.5C 264.602,292.437 252.602,274.937 232.5,263C 219.731,256.467 206.398,251.634 192.5,248.5C 191.737,247.732 190.737,247.232 189.5,247C 214.34,245.543 237.006,251.877 257.5,266C 273.6,281.421 278.6,299.588 272.5,320.5C 271.817,320.137 271.15,319.804 270.5,319.5 Z"/></g>
<g><path style="opacity:1" fill="#808284" d="M 192.5,248.5 C 206.398,251.634 219.731,256.467 232.5,263C 252.602,274.937 264.602,292.437 268.5,315.5C 265.286,314.56 262.286,313.06 259.5,311C 249.833,300 240.167,289 230.5,278C 227.167,275.667 223.833,273.333 220.5,271C 185.319,255.619 149.652,253.452 113.5,264.5C 118.328,260.919 123.328,257.585 128.5,254.5C 128.56,255.043 128.893,255.376 129.5,255.5C 149.673,246.311 170.673,243.977 192.5,248.5 Z"/></g>
<g><path style="opacity:1" fill="#a6a8ab" d="M 275.5,264.5 C 282.087,265.295 288.754,265.795 295.5,266C 292.794,267.548 289.96,268.714 287,269.5C 286.333,271.5 286.333,273.5 287,275.5C 293.066,291.634 300.232,307.3 308.5,322.5C 313.301,319.861 318.134,319.861 323,322.5C 322.713,317.294 321.38,312.294 319,307.5C 315.574,301.324 312.741,294.991 310.5,288.5C 316.5,295.148 321,302.815 324,311.5C 325.882,320.124 327.548,328.79 329,337.5C 333.289,339.091 337.456,340.758 341.5,342.5C 327.687,351.911 314.02,361.578 300.5,371.5C 300.5,368.5 300.5,365.5 300.5,362.5C 309.015,356.829 317.682,351.329 326.5,346C 329.336,337.571 327.336,330.237 320.5,324C 316.845,323.359 313.345,323.859 310,325.5C 309.167,325.167 308.333,324.833 307.5,324.5C 302.636,318.11 298.803,311.11 296,303.5C 295.809,305.708 295.309,307.708 294.5,309.5C 294.631,308.761 294.464,308.094 294,307.5C 292.798,313.773 290.798,319.773 288,325.5C 284.609,328.968 280.776,329.468 276.5,327C 274.112,325.139 271.446,323.806 268.5,323C 269.973,322.29 270.64,321.124 270.5,319.5C 271.15,319.804 271.817,320.137 272.5,320.5C 278.6,299.588 273.6,281.421 257.5,266C 237.006,251.877 214.34,245.543 189.5,247C 190.737,247.232 191.737,247.732 192.5,248.5C 170.673,243.977 149.673,246.311 129.5,255.5C 128.893,255.376 128.56,255.043 128.5,254.5C 164.945,232.475 202.945,229.642 242.5,246C 254.169,251.163 265.169,257.33 275.5,264.5 Z"/></g>
<g><path style="opacity:1" fill="#808184" d="M 302.5,245.5 C 298.167,244.833 293.833,244.167 289.5,243.5C 290.278,236.932 291.278,230.265 292.5,223.5C 305.167,223.5 317.833,223.5 330.5,223.5C 327.897,230.564 326.897,237.898 327.5,245.5C 319.167,245.5 310.833,245.5 302.5,245.5 Z"/></g>
<g><path style="opacity:1" fill="#f2f2f3" d="M 321.5,224.5 C 323.924,224.192 326.257,224.526 328.5,225.5C 327.253,228.329 325.753,230.995 324,233.5C 323.261,230.454 322.428,227.454 321.5,224.5 Z"/></g>
<g><path style="opacity:1" fill="#414142" d="M 274.5,243.5 C 274.502,250.52 274.835,257.52 275.5,264.5C 265.169,257.33 254.169,251.163 242.5,246C 202.945,229.642 164.945,232.475 128.5,254.5C 123.328,257.585 118.328,260.919 113.5,264.5C 112.522,264.811 111.855,265.478 111.5,266.5C 112.848,277.721 117.015,287.721 124,296.5C 140.316,313.748 159.816,326.082 182.5,333.5C 183.386,334.325 183.719,335.325 183.5,336.5C 184.5,336.5 185.5,336.5 186.5,336.5C 190.013,338.422 193.679,340.088 197.5,341.5C 173.307,338.143 151.307,328.976 131.5,314C 115.062,299.523 107.729,281.356 109.5,259.5C 112.251,255.243 115.584,251.41 119.5,248C 139.325,230.199 162.325,218.532 188.5,213C 202.169,211.953 215.502,213.619 228.5,218C 245.247,224.201 260.58,232.701 274.5,243.5 Z"/></g>
<g><path style="opacity:1" fill="#f8f8f8" d="M 293.5,210.5 C 293.833,210.5 294.167,210.5 294.5,210.5C 311.156,211.24 327.823,211.574 344.5,211.5C 345.043,211.56 345.376,211.893 345.5,212.5C 343.895,215.314 342.895,218.314 342.5,221.5C 328.155,221.133 313.822,220.466 299.5,219.5C 296.731,219.471 294.397,218.805 292.5,217.5C 293.369,215.283 293.702,212.95 293.5,210.5 Z"/></g>
<g><path style="opacity:1" fill="#a5a7a9" d="M 288.5,243.5 C 283.833,243.5 279.167,243.5 274.5,243.5C 260.58,232.701 245.247,224.201 228.5,218C 215.502,213.619 202.169,211.953 188.5,213C 162.325,218.532 139.325,230.199 119.5,248C 115.584,251.41 112.251,255.243 109.5,259.5C 106.358,264.436 103.191,269.436 100,274.5C 99.6667,279.833 99.3333,285.167 99,290.5C 95.7627,298.854 94.2627,307.521 94.5,316.5C 90.1768,316.227 86.0102,315.227 82,313.5C 75.5121,316.156 70.0121,320.156 65.5,325.5C 65.1755,318.313 65.5088,311.313 66.5,304.5C 66.3354,307.518 66.502,310.518 67,313.5C 68.0259,310.761 69.5259,308.428 71.5,306.5C 75.6874,308.76 80.0207,310.76 84.5,312.5C 92.4076,257.436 123.074,222.603 176.5,208C 196.664,204.979 216.331,206.979 235.5,214C 254.747,221.283 272.413,231.116 288.5,243.5 Z"/></g>
<g><path style="opacity:1" fill="#d1d3d4" d="M 293.5,203.5 C 299.833,203.5 306.167,203.5 312.5,203.5C 318.645,204.49 324.978,204.823 331.5,204.5C 333.5,204.5 335.5,204.5 337.5,204.5C 340.167,206.5 342.5,208.833 344.5,211.5C 327.823,211.574 311.156,211.24 294.5,210.5C 294.683,208.064 294.016,205.897 292.5,204C 292.728,203.601 293.062,203.435 293.5,203.5 Z"/></g>
<g><path style="opacity:1" fill="#b34138" d="M 331.5,204.5 C 324.978,204.823 318.645,204.49 312.5,203.5C 317.43,203.803 322.263,203.469 327,202.5C 332.078,192.01 337.411,181.677 343,171.5C 338.701,182.225 334.868,193.225 331.5,204.5 Z"/></g>
<g><path style="opacity:1" fill="#414042" d="M 235.5,193.5 C 253.894,197.856 270.894,205.856 286.5,217.5C 287.665,224.811 287.831,232.144 287,239.5C 264.492,220.989 239.659,208.822 212.5,203C 221.887,202.418 231.22,202.418 240.5,203C 241.411,198.684 239.745,195.518 235.5,193.5 Z"/></g>
<g><path style="opacity:1" fill="#4c4c4e" d="M 164.5,191.5 C 169.179,191.334 173.845,191.501 178.5,192C 180.158,192.725 180.658,193.892 180,195.5C 176.051,197.71 171.884,199.543 167.5,201C 141.378,205.788 120.878,218.955 106,240.5C 98.0685,254.361 91.2352,268.694 85.5,283.5C 89.6646,248.167 106.998,221.334 137.5,203C 146.442,198.643 155.442,194.81 164.5,191.5 Z"/></g>
<g><path style="opacity:1" fill="#a5a7aa" d="M 293.5,210.5 C 293.702,212.95 293.369,215.283 292.5,217.5C 274.728,205.115 255.395,195.615 234.5,189C 186.278,175.099 144.111,185.266 108,219.5C 104.257,223.732 100.757,228.065 97.5,232.5C 108.794,210.649 126.127,195.482 149.5,187C 171.294,179.885 193.627,177.552 216.5,180C 243.12,180.984 267.12,189.317 288.5,205C 290.373,206.704 292.04,208.537 293.5,210.5 Z"/></g>
<g><path style="opacity:1" fill="#bcbcbd" d="M 261.5,182.5 C 264.759,184.153 268.093,185.819 271.5,187.5C 279.527,191.511 286.86,196.511 293.5,202.5C 293.5,202.833 293.5,203.167 293.5,203.5C 293.062,203.435 292.728,203.601 292.5,204C 294.016,205.897 294.683,208.064 294.5,210.5C 294.167,210.5 293.833,210.5 293.5,210.5C 292.04,208.537 290.373,206.704 288.5,205C 267.12,189.317 243.12,180.984 216.5,180C 193.627,177.552 171.294,179.885 149.5,187C 126.127,195.482 108.794,210.649 97.5,232.5C 89.1299,245.412 82.9633,259.412 79,274.5C 76.4321,285.177 73.9321,295.844 71.5,306.5C 69.5259,308.428 68.0259,310.761 67,313.5C 66.502,310.518 66.3354,307.518 66.5,304.5C 68.6013,263.14 84.6013,228.306 114.5,200C 118.195,197.49 121.862,194.99 125.5,192.5C 128.203,190.819 130.869,189.153 133.5,187.5C 150.853,179.161 169.186,174.661 188.5,174C 213.416,171.99 237.75,174.823 261.5,182.5 Z"/></g>
<g><path style="opacity:1" fill="#eed6ca" d="M 69.5,123.5 C 73.2755,127.051 75.4422,131.384 76,136.5C 71.8365,132.166 67.0031,128.832 61.5,126.5C 63.7916,124.733 66.4582,123.733 69.5,123.5 Z"/></g>
<g><path style="opacity:1" fill="#b34139" d="M 331.5,56.5 C 330.824,86.1008 327.657,115.434 322,144.5C 319.931,153.705 317.264,162.705 314,171.5C 317.053,151.979 319.387,132.312 321,112.5C 321.667,99.1667 321.667,85.8333 321,72.5C 320.514,66.8889 319.347,61.5556 317.5,56.5C 315.486,51.6433 312.819,47.1433 309.5,43C 309.833,42.8333 310.167,42.6667 310.5,42.5C 317.357,47.425 324.357,52.0916 331.5,56.5 Z"/></g>
<g><path style="opacity:1" fill="#b34037" d="M 424.5,75.5 C 407.384,85.4423 392.884,98.4423 381,114.5C 386.035,100.611 393.535,88.1106 403.5,77C 406.228,74.6078 409.228,72.6078 412.5,71C 411.263,70.7679 410.263,70.2679 409.5,69.5C 410.552,69.6495 411.552,69.4828 412.5,69C 411.042,66.54 409.209,64.3734 407,62.5C 406.333,61.8333 406.333,61.1667 407,60.5C 412.731,65.7392 418.564,70.7392 424.5,75.5 Z"/></g>
<g><path style="opacity:1" fill="#ff723b" d="M 317.5,56.5 C 319.347,61.5556 320.514,66.8889 321,72.5C 321.667,85.8333 321.667,99.1667 321,112.5C 319.387,132.312 317.053,151.979 314,171.5C 317.264,162.705 319.931,153.705 322,144.5C 327.657,115.434 330.824,86.1008 331.5,56.5C 333.167,56.5 334.833,56.5 336.5,56.5C 337.222,56.9175 337.722,57.5842 338,58.5C 338.168,68.1838 338.668,77.8505 339.5,87.5C 343.173,78.1435 346.84,68.8102 350.5,59.5C 359.167,59.8333 367.833,60.1667 376.5,60.5C 377.167,68.3433 377.833,76.3433 378.5,84.5C 382.855,78.4328 387.188,72.4328 391.5,66.5C 397.54,67.2845 403.54,68.2845 409.5,69.5C 410.263,70.2679 411.263,70.7679 412.5,71C 409.228,72.6078 406.228,74.6078 403.5,77C 393.535,88.1106 386.035,100.611 381,114.5C 392.884,98.4423 407.384,85.4423 424.5,75.5C 431.711,77.1305 438.711,79.1305 445.5,81.5C 425.819,92.6685 408.653,107.002 394,124.5C 372.978,149.677 354.145,176.344 337.5,204.5C 335.5,204.5 333.5,204.5 331.5,204.5C 334.868,193.225 338.701,182.225 343,171.5C 337.411,181.677 332.078,192.01 327,202.5C 322.263,203.469 317.43,203.803 312.5,203.5C 306.167,203.5 299.833,203.5 293.5,203.5C 293.5,203.167 293.5,202.833 293.5,202.5C 300.86,164.067 302.36,125.4 298,86.5C 296.459,77.6711 294.293,69.0044 291.5,60.5C 292.949,59.8281 294.282,59.1614 295.5,58.5C 302.795,57.4673 310.129,56.8006 317.5,56.5 Z"/></g>
<g><path style="opacity:1" fill="#f58a70" d="M 388.5,124.5 C 387.969,126.544 386.802,128.211 385,129.5C 385.077,127.228 386.243,125.562 388.5,124.5 Z"/></g>
<g><path style="opacity:1" fill="#f68c7f" d="M 317.5,78.5 C 318.875,88.3771 318.708,98.3771 317,108.5C 316.503,106.19 316.337,103.857 316.5,101.5C 317.492,94.0182 317.825,86.3516 317.5,78.5 Z"/></g>
<g><path style="opacity:1" fill="#feefe9" d="M 388.5,124.5 C 398.845,107.651 412.178,93.4846 428.5,82C 431.5,81.3333 434.5,81.3333 437.5,82C 418.881,93.4469 402.548,107.614 388.5,124.5 Z"/></g>
<g><path style="opacity:1" fill="#ffe2d8" d="M 400.5,70.5 C 402.604,70.2011 404.604,70.5344 406.5,71.5C 401.436,75.2757 396.936,79.609 393,84.5C 394.735,79.5525 397.235,74.8858 400.5,70.5 Z"/></g>
<g><path style="opacity:1" fill="#b44138" d="M 391.5,66.5 C 387.188,72.4328 382.855,78.4328 378.5,84.5C 377.833,76.3433 377.167,68.3433 376.5,60.5C 372.786,54.6069 368.453,49.1069 363.5,44C 373.249,50.7431 382.582,58.2431 391.5,66.5 Z"/></g>
<g><path style="opacity:1" fill="#fff2ed" d="M 317.5,78.5 C 317.825,86.3516 317.492,94.0182 316.5,101.5C 316.981,88.3641 314.814,75.6975 310,63.5C 308.978,62.646 308.145,61.646 307.5,60.5C 310.086,59.52 312.753,59.1866 315.5,59.5C 316.494,65.7965 317.16,72.1298 317.5,78.5 Z"/></g>
<g><path style="opacity:1" fill="#b44138" d="M 350.5,59.5 C 346.84,68.8102 343.173,78.1435 339.5,87.5C 338.668,77.8505 338.168,68.1838 338,58.5C 337.722,57.5842 337.222,56.9175 336.5,56.5C 335.942,52.0282 335.109,47.6949 334,43.5C 339.395,49.0638 344.895,54.3971 350.5,59.5 Z"/></g>
<g><path style="opacity:1" fill="#ff5738" d="M 295.5,58.5 C 294.282,59.1614 292.949,59.8281 291.5,60.5C 294.293,69.0044 296.459,77.6711 298,86.5C 302.36,125.4 300.86,164.067 293.5,202.5C 286.86,196.511 279.527,191.511 271.5,187.5C 272.57,176.86 272.737,166.193 272,155.5C 271.743,151.623 270.743,147.957 269,144.5C 268.962,154.936 267.962,165.269 266,175.5C 264.974,178.239 263.474,180.572 261.5,182.5C 237.75,174.823 213.416,171.99 188.5,174C 169.186,174.661 150.853,179.161 133.5,187.5C 127.114,178.936 120.114,170.77 112.5,163C 109.801,160.49 106.801,158.824 103.5,158C 112.729,168.291 120.062,179.791 125.5,192.5C 121.862,194.99 118.195,197.49 114.5,200C 84.6013,228.306 68.6013,263.14 66.5,304.5C 65.5088,311.313 65.1755,318.313 65.5,325.5C 54.4582,340.089 46.9582,356.423 43,374.5C 39.1394,395.309 37.4727,416.309 38,437.5C 32.3907,439.861 26.5574,441.528 20.5,442.5C 19.0055,442.291 17.8388,441.624 17,440.5C 11.8757,384.892 11.2091,329.225 15,273.5C 18.2534,238.562 25.5867,204.562 37,171.5C 42.4183,156.663 49.4183,142.663 58,129.5C 58.7589,127.937 59.9256,126.937 61.5,126.5C 67.0031,128.832 71.8365,132.166 76,136.5C 75.4422,131.384 73.2755,127.051 69.5,123.5C 68.8783,122.373 68.045,121.373 67,120.5C 66.3333,119.5 66.3333,118.5 67,117.5C 76.9958,103.359 88.4958,90.5261 101.5,79C 105.48,75.8454 109.814,73.3454 114.5,71.5C 117.228,75.2757 119.728,79.2757 122,83.5C 122.762,79.4126 122.596,75.4126 121.5,71.5C 120.483,67.6059 120.483,63.7725 121.5,60C 134.625,51.7709 148.292,44.6043 162.5,38.5C 202.244,28.5405 240.577,32.3738 277.5,50C 281.5,52.6667 285.5,55.3333 289.5,58C 291.473,58.4955 293.473,58.6621 295.5,58.5 Z"/></g>
<g><path style="opacity:1" fill="#661d11" d="M 36.5,389.5 C 35.4423,404.159 34.4423,418.825 33.5,433.5C 29.4003,435.645 25.067,436.978 20.5,437.5C 19.6985,424.485 18.6985,411.485 17.5,398.5C 17.3337,391.492 17.5004,384.492 18,377.5C 18.3333,381.833 18.6667,386.167 19,390.5C 23.8027,389.188 28.636,389.188 33.5,390.5C 34.4776,390.023 35.3109,389.357 36,388.5C 36.3988,388.728 36.5654,389.062 36.5,389.5 Z"/></g>
<g><path style="opacity:1" fill="#7f2516" d="M 16.5,338.5 C 17.3285,345.321 17.8285,352.321 18,359.5C 20.3333,356.833 22.6667,356.833 25,359.5C 30.19,358.248 35.3566,356.915 40.5,355.5C 40.2964,356.529 40.7964,357.529 42,358.5C 42.3333,357.5 42.6667,356.5 43,355.5C 43.4643,356.094 43.631,356.761 43.5,357.5C 40.8163,368.219 38.4829,378.886 36.5,389.5C 36.5654,389.062 36.3988,388.728 36,388.5C 35.3109,389.357 34.4776,390.023 33.5,390.5C 28.636,389.188 23.8027,389.188 19,390.5C 18.6667,386.167 18.3333,381.833 18,377.5C 17.5004,384.492 17.3337,391.492 17.5,398.5C 16.5064,389.348 16.1731,380.015 16.5,370.5C 16.5,359.833 16.5,349.167 16.5,338.5 Z"/></g>
<g><path style="opacity:1" fill="#992c1a" d="M 59.5,325.5 C 53.095,335.643 47.7617,346.31 43.5,357.5C 43.631,356.761 43.4643,356.094 43,355.5C 42.6667,356.5 42.3333,357.5 42,358.5C 40.7964,357.529 40.2964,356.529 40.5,355.5C 35.3566,356.915 30.19,358.248 25,359.5C 22.6667,356.833 20.3333,356.833 18,359.5C 17.8285,352.321 17.3285,345.321 16.5,338.5C 16.3338,332.158 16.5005,325.825 17,319.5C 16.9877,322.651 17.9877,325.318 20,327.5C 20.6667,324.833 21.3333,324.833 22,327.5C 22.6891,326.643 23.5224,325.977 24.5,325.5C 28.3384,326.525 32.0051,327.192 35.5,327.5C 35.8333,326.833 36.1667,326.167 36.5,325.5C 38.0421,326.747 39.5421,326.747 41,325.5C 43.084,328.033 45.084,328.033 47,325.5C 49,325.5 51,325.5 53,325.5C 55.0341,327.56 57.0341,327.226 59,324.5C 59.3988,324.728 59.5654,325.062 59.5,325.5 Z"/></g>
<g><path style="opacity:1" fill="#b2331e" d="M 63.5,289.5 C 62.577,300.821 61.7436,312.154 61,323.5C 60.7216,324.416 60.2216,325.082 59.5,325.5C 59.5654,325.062 59.3988,324.728 59,324.5C 57.0341,327.226 55.0341,327.56 53,325.5C 51,325.5 49,325.5 47,325.5C 45.084,328.033 43.084,328.033 41,325.5C 39.5421,326.747 38.0421,326.747 36.5,325.5C 36.1667,326.167 35.8333,326.833 35.5,327.5C 32.0051,327.192 28.3384,326.525 24.5,325.5C 23.5224,325.977 22.6891,326.643 22,327.5C 21.3333,324.833 20.6667,324.833 20,327.5C 17.9877,325.318 16.9877,322.651 17,319.5C 16.5005,325.825 16.3338,332.158 16.5,338.5C 16.5,349.167 16.5,359.833 16.5,370.5C 15.035,343.628 15.3683,316.628 17.5,289.5C 18.2216,289.082 18.7216,288.416 19,287.5C 19.3333,288.833 19.6667,290.167 20,291.5C 21.9964,291.996 23.6631,292.996 25,294.5C 26.67,292.302 28.67,291.968 31,293.5C 31.3333,292.833 31.6667,292.167 32,291.5C 33.5655,290.939 34.8989,291.606 36,293.5C 37.3333,290.833 38.6667,290.833 40,293.5C 40.6667,292.833 41.3333,292.167 42,291.5C 48.1929,292.213 54.5262,292.213 61,291.5C 61.3333,292.167 61.6667,292.833 62,293.5C 62.21,291.942 62.71,290.609 63.5,289.5 Z"/></g>
<g><path style="opacity:1" fill="#CC3B23" d="M 21.5,255.5 C 22.0082,257.842 23.0082,260.009 24.5,262C 23.8333,262.333 23.1667,262.667 22.5,263C 24.6014,262.562 26.4347,262.062 28,261.5C 28.5691,265.361 29.4024,265.361 30.5,261.5C 30.9976,262.603 31.3309,263.603 31.5,264.5C 33.7812,262.284 36.4478,261.451 39.5,262C 37.0712,262.451 36.9045,263.285 39,264.5C 41.4562,263.85 43.7895,262.85 46,261.5C 47.7618,261.944 47.5951,262.444 45.5,263C 47.6512,265.021 49.1512,264.521 50,261.5C 51,264.167 52,264.167 53,261.5C 55.4719,264.841 57.4719,264.841 59,261.5C 60.5548,263.146 62.2215,263.479 64,262.5C 66.1734,265.277 66.6734,265.11 65.5,262C 66.7441,261.544 67.5774,262.044 68,263.5C 68.3333,262.167 68.6667,260.833 69,259.5C 69.4828,260.448 69.6495,261.448 69.5,262.5C 67.628,271.643 65.628,280.643 63.5,289.5C 62.71,290.609 62.21,291.942 62,293.5C 61.6667,292.833 61.3333,292.167 61,291.5C 54.5262,292.213 48.1929,292.213 42,291.5C 41.3333,292.167 40.6667,292.833 40,293.5C 38.6667,290.833 37.3333,290.833 36,293.5C 34.8989,291.606 33.5655,290.939 32,291.5C 31.6667,292.167 31.3333,292.833 31,293.5C 28.67,291.968 26.67,292.302 25,294.5C 23.6631,292.996 21.9964,291.996 20,291.5C 19.6667,290.167 19.3333,288.833 19,287.5C 18.7216,288.416 18.2216,289.082 17.5,289.5C 18.0298,278.065 19.3631,266.732 21.5,255.5 Z"/></g>
<g><path style="opacity:1" fill="#E54227" d="M 26.5,225.5 C 27.4511,226.919 27.7845,228.585 27.5,230.5C 30.4724,229.248 33.639,229.248 37,230.5C 39.0821,227.85 40.7488,228.184 42,231.5C 43.5655,232.061 44.8989,231.394 46,229.5C 47.1544,231.957 48.4877,231.957 50,229.5C 51.1597,231.797 52.1597,231.464 53,228.5C 53.3333,229.167 53.6667,229.833 54,230.5C 56,230.5 58,230.5 60,230.5C 62.0797,228.027 64.2464,228.027 66.5,230.5C 67.2164,229.689 68.0497,229.022 69,228.5C 70.0105,228.892 70.5105,229.559 70.5,230.5C 71.1924,229.975 71.6924,229.308 72,228.5C 73.4579,229.747 74.9579,229.747 76.5,228.5C 77.6956,228.846 77.6956,229.346 76.5,230C 77.4491,230.617 78.2825,230.451 79,229.5C 79.3076,230.308 79.8076,230.975 80.5,231.5C 81.6956,231.154 81.6956,230.654 80.5,230C 81.7494,229.26 82.7494,229.427 83.5,230.5C 77.7063,240.746 73.0396,251.413 69.5,262.5C 69.6495,261.448 69.4828,260.448 69,259.5C 68.6667,260.833 68.3333,262.167 68,263.5C 67.5774,262.044 66.7441,261.544 65.5,262C 66.6734,265.11 66.1734,265.277 64,262.5C 62.2215,263.479 60.5548,263.146 59,261.5C 57.4719,264.841 55.4719,264.841 53,261.5C 52,264.167 51,264.167 50,261.5C 49.1512,264.521 47.6512,265.021 45.5,263C 47.5951,262.444 47.7618,261.944 46,261.5C 43.7895,262.85 41.4562,263.85 39,264.5C 36.9045,263.285 37.0712,262.451 39.5,262C 36.4478,261.451 33.7812,262.284 31.5,264.5C 31.3309,263.603 30.9976,262.603 30.5,261.5C 29.4024,265.361 28.5691,265.361 28,261.5C 26.4347,262.062 24.6014,262.562 22.5,263C 23.1667,262.667 23.8333,262.333 24.5,262C 23.0082,260.009 22.0082,257.842 21.5,255.5C 22.2511,245.222 23.9178,235.222 26.5,225.5 Z"/></g>
<g><path style="opacity:1" fill="#fd4439" d="M 109.5,198.5 C 99.6971,208.297 91.0304,218.964 83.5,230.5C 82.7494,229.427 81.7494,229.26 80.5,230C 81.6956,230.654 81.6956,231.154 80.5,231.5C 79.8076,230.975 79.3076,230.308 79,229.5C 78.2825,230.451 77.4491,230.617 76.5,230C 77.6956,229.346 77.6956,228.846 76.5,228.5C 74.9579,229.747 73.4579,229.747 72,228.5C 71.6924,229.308 71.1924,229.975 70.5,230.5C 70.5105,229.559 70.0105,228.892 69,228.5C 68.0497,229.022 67.2164,229.689 66.5,230.5C 64.2464,228.027 62.0797,228.027 60,230.5C 58,230.5 56,230.5 54,230.5C 53.6667,229.833 53.3333,229.167 53,228.5C 52.1597,231.464 51.1597,231.797 50,229.5C 48.4877,231.957 47.1544,231.957 46,229.5C 44.8989,231.394 43.5655,232.061 42,231.5C 40.7488,228.184 39.0821,227.85 37,230.5C 33.639,229.248 30.4724,229.248 27.5,230.5C 27.7845,228.585 27.4511,226.919 26.5,225.5C 27.7424,216.868 29.7424,208.535 32.5,200.5C 33.2216,200.918 33.7216,201.584 34,202.5C 35.6097,202.87 37.1097,202.203 38.5,200.5C 39.4776,200.977 40.3109,201.643 41,202.5C 45.6844,202.342 50.3511,202.342 55,202.5C 57.3333,201.833 59.6667,201.167 62,200.5C 68.5338,200.766 75.2005,200.766 82,200.5C 86.1626,202.441 90.1626,202.441 94,200.5C 94.6667,201.167 95.3333,201.833 96,202.5C 100.719,202.754 104.886,201.087 108.5,197.5C 109.107,197.624 109.44,197.957 109.5,198.5 Z"/></g>
<g><path style="opacity:1" fill="#ff4929" d="M 109.5,198.5 C 109.44,197.957 109.107,197.624 108.5,197.5C 104.886,201.087 100.719,202.754 96,202.5C 95.3333,201.833 94.6667,201.167 94,200.5C 90.1626,202.441 86.1626,202.441 82,200.5C 75.2005,200.766 68.5338,200.766 62,200.5C 59.6667,201.167 57.3333,201.833 55,202.5C 50.3511,202.342 45.6844,202.342 41,202.5C 40.3109,201.643 39.4776,200.977 38.5,200.5C 37.1097,202.203 35.6097,202.87 34,202.5C 33.7216,201.584 33.2216,200.918 32.5,200.5C 35.5893,190.011 38.9226,179.677 42.5,169.5C 45.4485,170.013 48.2819,170.013 51,169.5C 53.2221,172.044 55.3888,172.044 57.5,169.5C 59.7997,169.562 62.1331,169.895 64.5,170.5C 65.6473,170.182 66.4806,169.516 67,168.5C 68.5756,167.987 69.909,168.654 71,170.5C 74.5169,170.425 78.0169,170.425 81.5,170.5C 82.1924,169.975 82.6924,169.308 83,168.5C 83.3879,169.428 84.0546,170.095 85,170.5C 88.9242,170.635 92.9242,170.302 97,169.5C 97.3333,170.167 97.6667,170.833 98,171.5C 99.7849,170.76 101.618,170.093 103.5,169.5C 109.909,175.479 115.242,182.313 119.5,190C 116,192.669 112.667,195.502 109.5,198.5 Z"/></g>
<g><path style="opacity:1" fill="#b44038" d="M 271.5,187.5 C 268.093,185.819 264.759,184.153 261.5,182.5C 263.474,180.572 264.974,178.239 266,175.5C 267.962,165.269 268.962,154.936 269,144.5C 270.743,147.957 271.743,151.623 272,155.5C 272.737,166.193 272.57,176.86 271.5,187.5 Z"/></g>
<g><path style="opacity:1" fill="#991518" d="M 133.5,187.5 C 130.869,189.153 128.203,190.819 125.5,192.5C 120.062,179.791 112.729,168.291 103.5,158C 106.801,158.824 109.801,160.49 112.5,163C 120.114,170.77 127.114,178.936 133.5,187.5 Z"/></g>
<g><path style="opacity:1" fill="#e7c9bd" d="M 114.5,71.5 C 116.833,71.5 119.167,71.5 121.5,71.5C 122.596,75.4126 122.762,79.4126 122,83.5C 119.728,79.2757 117.228,75.2757 114.5,71.5 Z"/></g>
<g><path style="opacity:1" fill="#ff5738" d="M 285.5,70.5 C 288.118,78.2322 290.118,86.2322 291.5,94.5C 291.291,95.086 290.957,95.586 290.5,96C 286.276,97.4647 282.11,97.9647 278,97.5C 275.272,97.7642 272.939,98.7642 271,100.5C 268.978,99.0091 267.312,99.3424 266,101.5C 263.733,100.065 261.733,100.398 260,102.5C 255.647,102.642 251.647,102.642 248,102.5C 245.595,103.258 243.095,104.592 240.5,106.5C 240.511,105.559 240.011,104.892 239,104.5C 235.299,105.504 231.633,106.504 228,107.5C 226.602,106.949 225.268,106.616 224,106.5C 221.667,107.5 219.333,108.5 217,109.5C 215.413,108.273 214.079,108.606 213,110.5C 211.221,109.521 209.555,109.854 208,111.5C 206.221,110.521 204.555,110.854 203,112.5C 201.887,111.289 200.72,111.289 199.5,112.5C 198.833,113.833 198.167,115.167 197.5,116.5C 197.446,115.47 197.112,114.303 196.5,113C 195.175,113.148 194.008,112.982 193,112.5C 190.943,113.685 188.943,114.685 187,115.5C 186.333,112.833 185.667,112.833 185,115.5C 184.439,114.978 183.772,114.645 183,114.5C 179.502,115.333 176.002,116.166 172.5,117C 175.028,117.669 175.028,118.502 172.5,119.5C 171.522,119.023 170.689,118.357 170,117.5C 168.211,117.623 166.378,117.623 164.5,117.5C 163.522,117.977 162.689,118.643 162,119.5C 157.775,118.393 153.442,119.06 149,121.5C 147.984,120.366 147.317,120.699 147,122.5C 144.224,121.352 141.557,121.686 139,123.5C 136.02,122.796 132.854,122.796 129.5,123.5C 128.808,124.025 128.308,124.692 128,125.5C 126.542,124.253 125.042,124.253 123.5,125.5C 122.289,126.274 122.289,127.107 123.5,128C 122.354,128.645 121.354,129.478 120.5,130.5C 118.512,129.711 118.179,128.545 119.5,127C 112.884,127.655 106.218,128.321 99.5,129C 99,129.5 98.5,130 98,130.5C 91.6054,125.052 84.7721,120.219 77.5,116C 79.0303,113.648 80.6969,111.481 82.5,109.5C 82.4346,109.938 82.6012,110.272 83,110.5C 83.8333,109.5 84.6667,108.5 85.5,107.5C 86.9056,108.668 88.0723,108.335 89,106.5C 92.7082,107.504 96.3749,107.171 100,105.5C 101.261,105.759 102.261,106.426 103,107.5C 104.487,106.747 104.654,105.914 103.5,105C 105.433,104.217 106.933,104.717 108,106.5C 108.915,104.02 110.415,103.353 112.5,104.5C 113.478,104.023 114.311,103.357 115,102.5C 115.893,103.081 116.893,103.415 118,103.5C 123.205,101.699 128.539,100.365 134,99.5C 135.892,102.39 136.725,102.056 136.5,98.5C 139.607,98.2853 142.441,98.2853 145,98.5C 145.691,96.1088 146.691,96.1088 148,98.5C 149,97.5 150,96.5 151,95.5C 151.333,96.1667 151.667,96.8333 152,97.5C 153.333,96.1667 154.667,96.1667 156,97.5C 157.333,94.8333 158.667,94.8333 160,97.5C 161.478,94.0069 163.478,93.6736 166,96.5C 166.617,95.5509 166.451,94.7175 165.5,94C 167.441,93.2571 169.274,93.4238 171,94.5C 172.945,92.0739 175.445,91.2405 178.5,92C 177.304,92.6543 177.304,93.1543 178.5,93.5C 179.749,91.5245 181.249,91.1912 183,92.5C 186.353,89.9097 190.019,89.243 194,90.5C 195,89.5 196,88.5 197,87.5C 202.473,86.5858 208.306,86.5858 214.5,87.5C 215.503,85.458 216.837,85.1246 218.5,86.5C 219.5,85.8333 220.5,85.1667 221.5,84.5C 222.541,86.9913 223.374,86.9913 224,84.5C 225,84.8333 226,85.1667 227,85.5C 228.819,82.7433 231.152,81.7433 234,82.5C 236.686,79.8443 239.353,79.8443 242,82.5C 243.897,82.1036 245.397,81.1036 246.5,79.5C 247.842,80.9023 248.676,80.5689 249,78.5C 249.333,78.8333 249.667,79.1667 250,79.5C 253.792,78.4401 257.626,77.4401 261.5,76.5C 262.517,79.028 263.684,79.028 265,76.5C 266.667,76.8333 268.333,77.1667 270,77.5C 272.588,74.713 275.255,74.3796 278,76.5C 278.915,75.6721 279.581,74.6721 280,73.5C 280.667,74.8333 281.333,74.8333 282,73.5C 282.333,74.1667 282.667,74.8333 283,75.5C 284.883,74.3474 285.716,72.6807 285.5,70.5 Z"/></g>
<g><path style="opacity:1" fill="#ff5036" d="M 273.5,55.5 C 281.075,57.6548 285.075,62.6548 285.5,70.5C 285.716,72.6807 284.883,74.3474 283,75.5C 282.667,74.8333 282.333,74.1667 282,73.5C 281.333,74.8333 280.667,74.8333 280,73.5C 279.581,74.6721 278.915,75.6721 278,76.5C 275.255,74.3796 272.588,74.713 270,77.5C 268.333,77.1667 266.667,76.8333 265,76.5C 263.684,79.028 262.517,79.028 261.5,76.5C 257.626,77.4401 253.792,78.4401 250,79.5C 249.667,79.1667 249.333,78.8333 249,78.5C 248.676,80.5689 247.842,80.9023 246.5,79.5C 245.397,81.1036 243.897,82.1036 242,82.5C 239.353,79.8443 236.686,79.8443 234,82.5C 231.152,81.7433 228.819,82.7433 227,85.5C 226,85.1667 225,84.8333 224,84.5C 223.374,86.9913 222.541,86.9913 221.5,84.5C 220.5,85.1667 219.5,85.8333 218.5,86.5C 216.837,85.1246 215.503,85.458 214.5,87.5C 208.306,86.5858 202.473,86.5858 197,87.5C 196,88.5 195,89.5 194,90.5C 190.019,89.243 186.353,89.9097 183,92.5C 181.249,91.1912 179.749,91.5245 178.5,93.5C 177.304,93.1543 177.304,92.6543 178.5,92C 175.445,91.2405 172.945,92.0739 171,94.5C 169.274,93.4238 167.441,93.2571 165.5,94C 166.451,94.7175 166.617,95.5509 166,96.5C 163.478,93.6736 161.478,94.0069 160,97.5C 158.667,94.8333 157.333,94.8333 156,97.5C 154.667,96.1667 153.333,96.1667 152,97.5C 151.667,96.8333 151.333,96.1667 151,95.5C 150,96.5 149,97.5 148,98.5C 146.691,96.1088 145.691,96.1088 145,98.5C 142.441,98.2853 139.607,98.2853 136.5,98.5C 136.725,102.056 135.892,102.39 134,99.5C 128.539,100.365 123.205,101.699 118,103.5C 116.893,103.415 115.893,103.081 115,102.5C 114.311,103.357 113.478,104.023 112.5,104.5C 110.415,103.353 108.915,104.02 108,106.5C 106.933,104.717 105.433,104.217 103.5,105C 104.654,105.914 104.487,106.747 103,107.5C 102.261,106.426 101.261,105.759 100,105.5C 96.3749,107.171 92.7082,107.504 89,106.5C 88.0723,108.335 86.9056,108.668 85.5,107.5C 84.6667,108.5 83.8333,109.5 83,110.5C 82.6012,110.272 82.4346,109.938 82.5,109.5C 89.7698,98.0644 99.4365,89.231 111.5,83C 114.742,82.0145 117.408,82.8478 119.5,85.5C 121.951,89.852 123.618,94.5187 124.5,99.5C 128.444,92.3322 130.111,84.6655 129.5,76.5C 130.29,77.6085 130.79,78.9419 131,80.5C 132.705,79.2367 134.372,78.9034 136,79.5C 137.555,77.8542 139.221,77.5209 141,78.5C 142.441,77.13 144.108,76.13 146,75.5C 149.743,76.0907 154.076,76.0907 159,75.5C 162.102,73.3652 165.602,72.0319 169.5,71.5C 170.675,72.8549 171.675,72.6883 172.5,71C 176.089,70.7931 179.589,70.2931 183,69.5C 183.333,69.8333 183.667,70.1667 184,70.5C 185.958,69.048 187.958,68.7146 190,69.5C 198.861,67.5023 208.028,65.5023 217.5,63.5C 219.345,64.9378 220.511,64.6044 221,62.5C 221.333,63.1667 221.667,63.8333 222,64.5C 223.49,62.442 225.49,61.1087 228,60.5C 229.378,62.854 230.878,62.854 232.5,60.5C 233.554,60.6799 234.554,61.0133 235.5,61.5C 235.833,60.8333 236.167,60.1667 236.5,59.5C 240.365,59.545 244.198,59.545 248,59.5C 251.038,57.0715 254.371,56.4048 258,57.5C 262.816,54.004 267.649,53.6707 272.5,56.5C 273.107,56.3764 273.44,56.0431 273.5,55.5 Z"/></g>
<g><path style="opacity:1" fill="#fd453a" d="M 251.5,46.5 C 259.148,48.7164 266.481,51.7164 273.5,55.5C 273.44,56.0431 273.107,56.3764 272.5,56.5C 267.649,53.6707 262.816,54.004 258,57.5C 254.371,56.4048 251.038,57.0715 248,59.5C 244.198,59.545 240.365,59.545 236.5,59.5C 236.167,60.1667 235.833,60.8333 235.5,61.5C 234.554,61.0133 233.554,60.6799 232.5,60.5C 230.878,62.854 229.378,62.854 228,60.5C 225.49,61.1087 223.49,62.442 222,64.5C 221.667,63.8333 221.333,63.1667 221,62.5C 220.511,64.6044 219.345,64.9378 217.5,63.5C 208.028,65.5023 198.861,67.5023 190,69.5C 187.958,68.7146 185.958,69.048 184,70.5C 183.667,70.1667 183.333,69.8333 183,69.5C 179.589,70.2931 176.089,70.7931 172.5,71C 171.675,72.6883 170.675,72.8549 169.5,71.5C 165.602,72.0319 162.102,73.3652 159,75.5C 154.076,76.0907 149.743,76.0907 146,75.5C 144.108,76.13 142.441,77.13 141,78.5C 139.221,77.5209 137.555,77.8542 136,79.5C 134.372,78.9034 132.705,79.2367 131,80.5C 130.79,78.9419 130.29,77.6085 129.5,76.5C 129.632,73.4299 129.299,70.4299 128.5,67.5C 129.825,68.9526 130.658,68.6192 131,66.5C 134.656,67.1943 138.156,66.5276 141.5,64.5C 142.167,64.8333 142.833,65.1667 143.5,65.5C 151.021,63.7918 158.521,62.1252 166,60.5C 169.643,61.4127 173.476,60.7461 177.5,58.5C 179.598,59.4845 181.598,59.1511 183.5,57.5C 186.11,57.76 188.61,57.76 191,57.5C 193.608,56.701 196.274,55.701 199,54.5C 202.675,54.2716 206.009,54.2716 209,54.5C 210.324,53.1198 211.657,52.7865 213,53.5C 218.327,52.2613 223.327,50.9279 228,49.5C 229.667,49.8333 231.333,50.1667 233,50.5C 234.079,48.6063 235.413,48.273 237,49.5C 241.828,47.2404 246.661,46.2404 251.5,46.5 Z"/></g>
<g><path style="opacity:1" fill="#fd453a" d="M 251.5,46.5 C 246.661,46.2404 241.828,47.2404 237,49.5C 235.413,48.273 234.079,48.6063 233,50.5C 231.333,50.1667 229.667,49.8333 228,49.5C 223.327,50.9279 218.327,52.2613 213,53.5C 211.657,52.7865 210.324,53.1198 209,54.5C 206.009,54.2716 202.675,54.2716 199,54.5C 196.274,55.701 193.608,56.701 191,57.5C 188.61,57.76 186.11,57.76 183.5,57.5C 181.598,59.1511 179.598,59.4845 177.5,58.5C 173.476,60.7461 169.643,61.4127 166,60.5C 158.521,62.1252 151.021,63.7918 143.5,65.5C 142.833,65.1667 142.167,64.8333 141.5,64.5C 138.156,66.5276 134.656,67.1943 131,66.5C 130.658,68.6192 129.825,68.9526 128.5,67.5C 128.744,64.7374 130.077,62.5707 132.5,61C 170.064,38.9734 209.731,34.1401 251.5,46.5 Z"/></g>
<g><path style="opacity:1" fill="#ff5c41" d="M 445.5,81.5 C 438.711,79.1305 431.711,77.1305 424.5,75.5C 418.564,70.7392 412.731,65.7392 407,60.5C 406.333,61.1667 406.333,61.8333 407,62.5C 409.209,64.3734 411.042,66.54 412.5,69C 411.552,69.4828 410.552,69.6495 409.5,69.5C 403.54,68.2845 397.54,67.2845 391.5,66.5C 382.582,58.2431 373.249,50.7431 363.5,44C 368.453,49.1069 372.786,54.6069 376.5,60.5C 367.833,60.1667 359.167,59.8333 350.5,59.5C 344.895,54.3971 339.395,49.0638 334,43.5C 335.109,47.6949 335.942,52.0282 336.5,56.5C 334.833,56.5 333.167,56.5 331.5,56.5C 324.357,52.0916 317.357,47.425 310.5,42.5C 310.167,42.6667 309.833,42.8333 309.5,43C 312.819,47.1433 315.486,51.6433 317.5,56.5C 310.129,56.8006 302.795,57.4673 295.5,58.5C 293.473,58.6621 291.473,58.4955 289.5,58C 285.5,55.3333 281.5,52.6667 277.5,50C 240.577,32.3738 202.244,28.5405 162.5,38.5C 226.614,8.93143 292.614,4.43143 360.5,25C 394.548,34.7613 423.048,52.9279 446,79.5C 446.692,80.4368 446.525,81.1034 445.5,81.5 Z"/></g>
<g><path style="opacity:1" fill="#fefdfc" d="M 270.5,17.5 C 325.63,16.2676 375.963,31.1009 421.5,62C 422.696,62.6543 422.696,63.1543 421.5,63.5C 402.043,53.7701 382.376,44.6034 362.5,36C 358.213,34.8466 353.879,34.0133 349.5,33.5C 350.362,36.8852 352.028,39.8852 354.5,42.5C 354.113,43.7199 353.28,44.3865 352,44.5C 337.437,39.0519 323.104,33.0519 309,26.5C 308.5,26.6667 308,26.8333 307.5,27C 310.07,29.0673 312.07,31.5673 313.5,34.5C 311.235,35.6474 308.902,35.8141 306.5,35C 301.074,33.2474 295.74,31.4141 290.5,29.5C 289.5,29.6667 288.5,29.8333 287.5,30C 289.66,32.3313 291.66,34.8313 293.5,37.5C 290.554,38.6548 287.554,38.8214 284.5,38C 275.368,35.4005 266.368,32.4005 257.5,29C 253.016,27.2571 248.683,25.2571 244.5,23C 253.171,20.6155 261.838,18.7822 270.5,17.5 Z"/></g>
<g><path style="opacity:1" fill="#a6a8aa" d="M 199.5,462.5 C 201.5,462.833 203.5,463.167 205.5,463.5C 206.391,464.261 207.058,465.261 207.5,466.5C 207.132,470.086 206.132,473.419 204.5,476.5C 199.008,473.921 193.675,471.088 188.5,468C 187.402,467.23 187.402,466.397 188.5,465.5C 191.726,463.123 195.393,462.123 199.5,462.5 Z"/></g>
<g><path style="opacity:1" fill="#9b9ea0" d="M 243.5,402.5 C 244.5,402.5 245.5,402.5 246.5,402.5C 252.012,440.592 256.679,478.592 260.5,516.5C 256.875,513.377 253.375,510.044 250,506.5C 249.333,503.833 248.667,501.167 248,498.5C 244.108,466.533 242.608,434.533 243.5,402.5 Z"/></g>
<g><path style="opacity:1" fill="#a6a8aa" d="M 241.5,484.5 C 241.666,489.511 241.499,494.511 241,499.5C 234.512,496.684 228.679,493.017 223.5,488.5C 228.802,484.788 234.802,483.455 241.5,484.5 Z"/></g>
</svg>
